<svg width="800" height="800" viewBox="0 0 800 800" fill="none" xmlns="http://www.w3.org/2000/svg">
<path d="M564.63 642.19C585.32 633.709 605.263 623.662 624.257 612.215L636.976 604.549L625.09 595.646C619.571 591.513 614.108 587.186 608.761 582.729L603.853 578.638L598.079 581.372C470.742 641.651 330.841 641.672 201.876 581.352L196.082 578.642L191.193 582.766C185.939 587.196 180.504 591.5 174.95 595.615L162.938 604.514L175.748 612.219C194.68 623.607 214.567 633.646 235.247 642.127C225.279 661.058 214.131 679.219 201.916 696.548C140.253 676.634 77.5777 646.841 12.9527 599.187C0.015335 451.741 27.9775 302.357 128.797 148.922C176.951 126.59 228.277 110.059 281.845 100.174C288.009 111.746 294.653 125.542 299.34 136.801L302.349 144.028L310.086 142.842C369.48 133.743 429.439 133.739 490.001 142.846L497.719 144.007L500.719 136.802C505.421 125.51 511.93 111.724 517.998 100.182C571.504 110.065 622.769 126.538 670.914 148.81C758.483 280.542 802.178 428.617 787.049 599.187C722.416 646.905 659.678 676.702 597.945 696.617C585.711 679.299 574.595 661.107 564.63 642.19ZM185.185 429.422C185.185 478.615 220.894 521.234 267.106 521.234C314.031 521.234 349.056 478.607 349.027 429.49C349.745 380.069 313.921 337.546 267.106 337.546C220.135 337.546 185.185 380.305 185.185 429.422ZM450.971 429.422C450.971 478.615 486.68 521.234 532.891 521.234C579.828 521.234 614.775 478.595 614.812 429.5C615.535 380.074 579.709 337.546 532.891 337.546C485.919 337.546 450.971 380.305 450.971 429.422Z" stroke="black" stroke-width="20"/>
</svg>
