<svg width="800" height="800" viewBox="0 0 800 800" fill="none" xmlns="http://www.w3.org/2000/svg">
  <path
    d="M431.928 568.395C516.423 543.715 546.202 546.633 571.82 546.698C590.82 546.747 609.666 543.296 626.984 535.478L629.218 534.469C704.231 500.6 732.796 408.753 690.063 338.414C625.617 232.335 536.558 103.531 489.328 113.55C409.899 130.401 409.903 232.89 409.903 232.89C409.903 232.89 388.588 228.231 337.219 244.142C285.362 258.382 269.905 273.78 269.905 273.78C269.905 273.78 214.745 187.4 138.734 215.95C93.5356 232.927 87.8048 389.418 90.5848 513.506C92.428 595.79 165.94 657.824 247.389 645.992L249.816 645.64C268.618 642.908 286.36 635.673 302.348 625.404C323.904 611.56 347.432 593.074 431.928 568.395Z"
    stroke="black" stroke-width="20.1081" stroke-linecap="round" stroke-linejoin="round" />
  <path
    d="M265.939 642.149C291.275 694.734 328.565 695.089 354.153 674.009C379.741 652.931 381.646 606.662 353.769 564.011"
    stroke="black" stroke-width="20.1081" stroke-linecap="round" stroke-linejoin="round" />
  <path
    d="M408.029 514.606C448.74 502.715 579.4 503.553 541.56 407.579C503.72 311.606 443.218 309.322 354.329 330.751C267.881 360.536 218.12 395.023 237.885 496.275C257.649 597.528 367.319 526.498 408.029 514.606Z"
    stroke="black" stroke-width="20.1081" stroke-linecap="round" stroke-linejoin="round" />
  <path d="M330.511 470.713L314.486 415.855" stroke="black" stroke-width="20.1081" stroke-linecap="round"
    stroke-linejoin="round" />
  <path d="M449.737 435.889L433.714 381.031" stroke="black" stroke-width="20.1081" stroke-linecap="round"
    stroke-linejoin="round" />
  <path d="M579.43 546.485C617.517 613.05 616.736 663.162 616.736 663.162" stroke="black" stroke-width="20.1081"
    stroke-linecap="round" stroke-linejoin="round" />
  <path d="M547.559 545.857C522.664 617.247 426.636 661.75 336.338 603.725" stroke="black" stroke-width="20"
    stroke-linecap="round" stroke-linejoin="round" />
</svg>